<svg width="20" height="20" viewBox="0 0 20 20" fill="none" xmlns="http://www.w3.org/2000/svg">
<path d="M10.7821 9.99972L15.3877 5.39417C15.4787 5.28789 15.5263 5.15118 15.5209 5.01136C15.5155 4.87154 15.4575 4.73891 15.3585 4.63997C15.2596 4.54102 15.127 4.48306 14.9872 4.47766C14.8473 4.47226 14.7106 4.51982 14.6043 4.61083L9.99879 9.21639L5.39324 4.60528C5.28862 4.50067 5.14674 4.44189 4.99879 4.44189C4.85085 4.44189 4.70896 4.50067 4.60435 4.60528C4.49973 4.70989 4.44096 4.85178 4.44096 4.99972C4.44096 5.14767 4.49973 5.28955 4.60435 5.39417L9.21546 9.99972L4.60435 14.6053C4.54619 14.6551 4.49896 14.7164 4.46561 14.7853C4.43226 14.8542 4.41353 14.9293 4.41057 15.0058C4.40761 15.0823 4.42051 15.1586 4.44844 15.2299C4.47637 15.3012 4.51873 15.3659 4.57287 15.4201C4.62702 15.4742 4.69176 15.5166 4.76306 15.5445C4.83435 15.5725 4.91064 15.5853 4.98715 15.5824C5.06367 15.5794 5.13874 15.5607 5.20766 15.5273C5.27659 15.494 5.33788 15.4468 5.38768 15.3886L9.99879 10.7831L14.6043 15.3886C14.7106 15.4796 14.8473 15.5272 14.9872 15.5218C15.127 15.5164 15.2596 15.4584 15.3585 15.3595C15.4575 15.2605 15.5155 15.1279 15.5209 14.9881C15.5263 14.8483 15.4787 14.7116 15.3877 14.6053L10.7821 9.99972Z" fill="black"/>
</svg>
