<svg width="24" height="24" viewBox="0 0 24 24" fill="none" xmlns="http://www.w3.org/2000/svg">
<path d="M20.5194 4.56784C20.0272 4.06173 19.4428 3.66025 18.7995 3.38634C18.1562 3.11242 17.4668 2.97144 16.7705 2.97144C16.0742 2.97144 15.3847 3.11242 14.7415 3.38634C14.0982 3.66025 13.5138 4.06173 13.0216 4.56784L12 5.6177L10.9784 4.56784C9.98417 3.54602 8.63564 2.97197 7.22952 2.97197C5.8234 2.97197 4.47487 3.54602 3.48059 4.56784C2.48631 5.58966 1.92773 6.97555 1.92773 8.42062C1.92773 9.8657 2.48631 11.2516 3.48059 12.2734L4.50215 13.3233L12 21.0288L19.4979 13.3233L20.5194 12.2734C21.0119 11.7675 21.4025 11.1669 21.6691 10.5058C21.9356 9.84476 22.0728 9.1362 22.0728 8.42062C22.0728 7.70505 21.9356 6.99648 21.6691 6.33541C21.4025 5.67434 21.0119 5.07371 20.5194 4.56784V4.56784Z" stroke="#111111" stroke-linecap="round" stroke-linejoin="round"/>
</svg>
