<svg width="77" height="24" viewBox="0 0 77 24" fill="none" xmlns="http://www.w3.org/2000/svg">
<path d="M27.4236 22.954V23.394H18.1664V23.1117C19.4593 21.9163 19.4924 21.4099 19.2355 18.0311L19.078 16.047C18.9537 14.6939 18.8543 13.2743 18.8294 11.4396L18.6388 11.4064C18.0752 13.266 17.3459 15.0675 16.6829 16.5451L13.4425 23.8008H13.1275L9.50587 15.9142C8.87601 14.4946 8.31245 13.1415 7.70746 11.4313L7.51684 11.4645C7.51684 13.2328 7.45054 14.6524 7.42568 15.9474L7.35938 17.6825C7.20192 21.6257 7.20192 21.8499 8.74341 23.1117V23.394H0V22.954C1.38403 21.9163 1.60779 20.7126 1.85642 17.8153L2.95867 5.32134C3.2073 2.76444 3.2073 2.10031 1.94758 1.0294V0.523002H8.87601L11.238 5.32134C12.3071 7.43826 13.0612 9.26462 13.6662 10.8087H13.8237C14.4204 9.07368 15.1166 7.30543 16.0282 5.32134L18.1664 0.523002H24.9042V1.0294C23.5202 2.0671 23.5533 2.5403 23.9594 5.88585L25.3186 17.533C25.7578 21.3767 25.9484 21.825 27.4236 22.954ZM21.0671 22.1404H24.3075C24.0837 21.0031 23.9263 19.7745 23.7439 18.1972L22.2605 5.32964C22.103 3.91007 22.0118 2.77274 22.0118 1.79315H19.2106L13.8237 13.7475H13.6662L7.87321 1.79315H4.74879C4.71564 2.61501 4.65763 3.49498 4.55817 4.72363L3.43106 17.973C3.30675 19.5835 3.18243 21.0031 2.99182 22.1404H5.63556C5.60241 21.0031 5.66871 19.899 5.79303 18.0726L6.58035 6.80733H6.82897L11.1137 15.6735C11.8678 17.2508 12.5971 18.9194 13.227 20.5299H13.4508C14.0475 19.019 14.8016 17.2508 15.4646 15.7316L19.3101 6.93186H19.5587L20.8184 18.413C20.9676 19.7745 21.0671 21.0031 21.0671 22.1404ZM40.1534 24C32.6282 24 27.9375 18.5458 27.9375 12.3943C27.9375 5.76963 33.3576 0 40.344 0C42.8634 0 45.2254 0.539606 47.6536 1.5441V8.64199H47.1481C44.8524 5.86925 42.7723 5.1055 40.7252 5.1055C36.8798 5.1055 34.899 8.35144 34.899 12.137C34.899 15.7316 36.8549 18.853 40.6589 18.853C42.9877 18.853 45.474 17.2757 47.3056 14.5943H47.778V21.7586C45.3746 23.2695 42.6065 24 40.1534 24ZM40.0871 22.514C42.1673 22.514 44.3718 22.0408 46.4188 20.6877V17.7572C45.0679 19.1768 42.9214 20.3722 40.5595 20.3722C36.0593 20.3722 33.1918 16.9021 33.1918 12.137C33.1918 7.05638 36.4654 3.5863 40.6838 3.5863C42.764 3.5863 44.7447 4.56589 46.2862 5.82774V2.67312C44.2723 1.75994 42.2584 1.44448 40.3689 1.44448C34.004 1.44448 29.6613 6.58319 29.6613 12.3943C29.6613 17.8485 33.7885 22.514 40.0871 22.514ZM77 22.954V23.394H67.7345V23.1117C69.0273 21.9163 69.0605 21.4099 68.8036 18.0311L68.6461 16.047C68.5218 14.6939 68.4223 13.2743 68.3975 11.4396L68.2069 11.4064C67.6433 13.266 66.914 15.0675 66.251 16.5451L63.0106 23.8008H62.6956L59.0739 15.9142C58.4441 14.4946 57.8805 13.1415 57.2755 11.4313L57.0849 11.4645C57.0849 13.2328 57.0186 14.6524 56.9938 15.9474L56.9275 17.6825C56.77 21.6257 56.77 21.8499 58.3115 23.1117V23.394H49.5681V22.954C50.9521 21.9163 51.1759 20.7126 51.4245 17.8153L52.5267 5.32134C52.7754 2.76444 52.7754 2.10031 51.5157 1.0294V0.523002H58.4441L60.8061 5.32134C61.8752 7.43826 62.6293 9.26462 63.2343 10.8087H63.3918C63.9885 9.07368 64.6846 7.30543 65.5963 5.32134L67.7345 0.523002H74.4723V1.0294C73.0883 2.0671 73.1214 2.5403 73.5275 5.88585L74.8784 17.5247C75.3259 21.3767 75.5165 21.825 77 22.954ZM70.6351 22.1404H73.8756C73.6518 21.0031 73.4944 19.7745 73.312 18.1972L71.8286 5.32964C71.6711 3.91007 71.5799 2.77274 71.5799 1.79315H68.7787L63.3918 13.7475H63.2343L57.4413 1.79315H54.3252C54.292 2.61501 54.234 3.49498 54.1345 4.72363L52.9991 17.973C52.8748 19.5835 52.7505 21.0031 52.5599 22.1404H55.2036C55.1705 21.0031 55.2368 19.899 55.3611 18.0726L56.1484 6.80733H56.3971L60.6817 15.6735C61.4359 17.2508 62.1652 18.9194 62.7951 20.5299H63.0188C63.6155 19.019 64.3697 17.2508 65.0327 15.7316L68.8782 6.93186H69.1268L70.3865 18.413C70.544 19.7745 70.6351 21.0031 70.6351 22.1404Z" fill="#1F1F1F"/>
</svg>
