<svg width="20" height="20" viewBox="0 0 20 20" fill="none" xmlns="http://www.w3.org/2000/svg">
<path d="M3 15.1502C3 14.9502 3.15 14.7502 3.4 14.7502H16.6C16.8 14.7502 17 14.9002 17 15.1502C17 15.3502 16.85 15.5502 16.6 15.5502H3.4C3.15 15.5502 3 15.4002 3 15.1502ZM3.4 10.4002H16.6C16.8 10.4002 17 10.2502 17 10.0002C17 9.8002 16.85 9.6002 16.6 9.6002H3.4C3.15 9.6002 3 9.8002 3 10.0002C3 10.2002 3.15 10.4002 3.4 10.4002ZM3.4 5.2502H16.6C16.8 5.2502 17 5.1002 17 4.8502C17 4.6002 16.85 4.4502 16.6 4.4502H3.4C3.15 4.4502 3 4.6002 3 4.8502C3 5.0502 3.15 5.2502 3.4 5.2502Z" fill="black"/>
</svg>
